<svg class="icon" viewBox="0 0 1024 1024" version="1.1" xmlns="http://www.w3.org/2000/svg"
     width="128" height="128">
  <path
    d="M921.6 352c-44.8-102.4-128-185.6-230.4-230.4 32-25.6 64-38.4 102.4-38.4 89.6 0 166.4 76.8 166.4 166.4 0 38.4-12.8 70.4-38.4 102.4z m-6.4 179.2c0 108.8-44.8 204.8-108.8 275.2l57.6 57.6c12.8 12.8 12.8 25.6 12.8 38.4-6.4 12.8-12.8 25.6-32 32-12.8 6.4-32 0-38.4-12.8l-64-64c-64 44.8-147.2 70.4-230.4 70.4-83.2 0-166.4-25.6-230.4-70.4l-57.6 57.6c-19.2 19.2-44.8 12.8-57.6 0-19.2-19.2-19.2-44.8 0-57.6l57.6-57.6c-76.8-64-115.2-160-115.2-268.8C108.8 307.2 288 128 512 128s403.2 179.2 403.2 403.2zM512 211.2c-179.2 0-320 147.2-320 320 0 179.2 147.2 320 320 320 179.2 0 320-147.2 320-320 0-179.2-140.8-320-320-320zM678.4 576H512c-12.8 0-19.2-6.4-32-12.8-6.4-6.4-12.8-19.2-12.8-32V307.2c0-25.6 19.2-38.4 44.8-38.4 25.6 0 44.8 19.2 44.8 38.4v179.2h128c12.8 0 32 6.4 38.4 19.2 6.4 12.8 6.4 32 0 44.8-12.8 19.2-25.6 25.6-44.8 25.6z m-576-217.6C76.8 326.4 64 288 64 256c0-89.6 76.8-166.4 166.4-166.4 38.4 0 76.8 12.8 102.4 38.4-102.4 38.4-185.6 121.6-230.4 230.4z m0 0"></path>
</svg>
