<svg xmlns="http://www.w3.org/2000/svg" viewBox="0 0 1592.46 551"><defs><style>.cls-1{fill:#fff;}.cls-2{fill:#22157c;}.cls-3{fill:#303698;}.cls-4{fill:#0a8bda;}.cls-5{fill:#00bff5;}</style></defs><g id="图层_2" data-name="图层 2"><g id="图层_1-2" data-name="图层 1"><circle class="cls-1" cx="457.79" cy="460.8" r="59.38"/><circle class="cls-1" cx="275.5" cy="275.5" r="275.5"/><circle class="cls-2" cx="276.25" cy="276.25" r="263.47"/><circle class="cls-3" cx="276.25" cy="276.25" r="225.89"/><circle class="cls-4" cx="276.25" cy="277" r="189.05"/><circle class="cls-5" cx="275.5" cy="276.25" r="150.72"/><circle class="cls-1" cx="276.63" cy="276.63" r="111.25"/><circle class="cls-3" cx="321.73" cy="325.49" r="38.34"/><circle class="cls-4" cx="456.29" cy="460.04" r="50.36"/><path class="cls-4" d="M346.54,452.53c49.56-14.36,63.14,26.31,63.14,26.31l65.4-65.4c-33.45-14.76-21.8-69.91-21.8-69.91"/><path class="cls-2" d="M705.16,88.39V110.7h18.91v16.49H705.16v33.94h20.61v16.49h-9.7v43.89h10.42v16h-9.21l.49,50.92,148.15,1.45V308.8l-155.91-1q-24.5-1.95-38.07-18.67l-2.43,18.67H640.9q3.39-33.7,4.49-49.59T647.08,227q.61-15.39.61-23.64V189l26.19-.73q-.74,70.56-.73,74.92l9,8.25V177.13H642.84v-16h28.61V127.19h-25.7V110.7h25.7V88.39Zm17.21,164.15q7.27-.72,7.28-2.42v-144h-7.76V90.57l83.65-.24-.48,15.52h-6.79V241.63l8.24-1.45.48,15.27-8.72,1.94v27.4H770.38V260.3l-47.77,8.25Zm38.31-146v33.94h9.7V106.58Zm0,49v34.19h9.7V155.55Zm0,52.14v38.79l9.22-1.94.48-36.85ZM807,283.58q7.51-33.21,10.8-49.34T822,211.81a30,30,0,0,0,.24-9.94q-.72-3.65-7-32.13T807,131.31q-1.93-9.94-3.15-19.4h25.7l4.13,41.46q1.94-15.27,3.63-47.52l-27.88.24V90.57l58,.24q-.5,9.94-.49,13.46T859.73,151q-7.15,43.16-8.48,50.07t2.06,18.91q3.39,12,6.18,23.76t8.61,38.68l-21.1.48-6.79-29.09-5.33,29.82Z"/><path class="cls-2" d="M947.14,216.66q-1.21,8.24-5.45,35.16t-11.76,56.73l-44.13-.24q0-1.21,7-27.64T905,216.42ZM928.47,86.94q3.88,7.26,8.13,21t10.54,34.31q-27.39,0-42.43-.73-9.94-33.95-17.7-54.8l7,.25Zm-.24,64.49a184.19,184.19,0,0,1,9.34,24q3.27,10.91,9.09,31.76H904.23q-1.71-7-4.85-18.06T887,151.92Zm70.07,65.23q-.72,8.49-1.45,13.09t-4.49,35.89q-3.75,31.28-5.94,42.19a389.11,389.11,0,0,1-41,.24q3.13-13.81,5.33-24.13t9.7-67.28Zm106.94-125.6v41.7l-28.37.73,1.94,3.15a336.94,336.94,0,0,0,18.67,40.49h-41.71q-8.49-17.94-16.85-34.31t-10.55-20.24h33.22V105.85h-72.5v16.73h3.15q8.73.24,13.58.24h16.25q-2,5.58-23.77,54.31-20.12.74-28.85.37c-5.82-.24-9.3-.37-10.43-.37h-4.36l22.55-43.64-3.64-.49H946.42q.72-41.46,1.45-42.67ZM1003.15,191.44q.5-10.42,0-23.52h45.35q0,21.83.72,23.76,26.67.25,38.07.25h18.43l-.24,15q-56.74-.74-57.47,1.21l.24,5.58v1.94q.49,11.64-.24,35t-.12,34.19a213.14,213.14,0,0,1-.12,23.64H1003.4q.48-88.74,0-92.74a51.66,51.66,0,0,1-.25-8.85H951.51a65.6,65.6,0,0,1-.73-15h34q10.66,0,12.85-.25A52.63,52.63,0,0,1,1003.15,191.44Zm86.57,25.22a58.69,58.69,0,0,1,1.94,7.51q.48,2.91,2.06,15.4t13.7,68.5l-40-.73a75.1,75.1,0,0,1-2.06-9q-.61-3.89-11.76-81.47Z"/><path class="cls-2" d="M1225.74,104.64l-26.91,2.9v34.92h27.64V158h-27.4l-.24,148.63q-17.22.74-24.73.73h-11.4l.24-149.36-30.79.24.24-14.3q30.79,0,30.8-.25V109l-32.74.24V93q53.34-1.22,93.11-4.61Zm-69.83,67.89q0,61.83-3.39,134.08h-20.37q5.32-72.74,4.85-135Zm68.14-1.94q2.65,58.18,4.36,135.78l-19.64.24q0-75.15-2.91-136ZM1332.92,92q-1,25-.49,141.6l17.94-3.64v19.64q-9,1.22-17.94,3.16l-.48,55.76-41.71-.24q.48-23.28,1.21-48.74-54.79,11.4-55.64,11.4t-1.58-19.64q43.39-8.49,57-11.4.48-68.85.73-147.66Zm-65.71,5.09q12.6,53.34,13.33,60.86h-32.49q-1.69-4.36-13.58-60.38Zm-31.28,72.5q16.72.72,33.7,0,4.36,23.52,6.43,36.73t2.78,20.73h-32.49A395.4,395.4,0,0,1,1235.93,169.62Z"/><path class="cls-2" d="M1434.27,86.45v33H1451l.24,16-17-.49.73,45.83,14.06-2.91v15.28L1434.27,197l.73,110.81q-21.11,1-31,1.09t-15.88-2.06q-5.94-2.19-15.64-10.19l2.42-15.27a50,50,0,0,0,15.52,7.76q.48-63,.12-68.62t-.12-12.37l-18.18,4.37L1370.74,197l20.13-5.09q.48-27.17.72-57h-17.7l-.48-15.51,17.46-.49V86h25Zm112-.49v22.31h45.59v17l-45.59.48V159q16,0,42.43-.49v13.83a55,55,0,0,1-5,18.54q-4.24,9.34-36,58.56A112.82,112.82,0,0,0,1559,265.52q7.39,9.09,19.16,23.76t13,16.61q-23.52.72-51.4-.25L1524,279.7l-25.21,28.13a309.52,309.52,0,0,1-50.44-.25q48-49.93,50.44-57.7-3.15-4.37-15.28-25.83t-23.28-39.64l42.68.24L1524,217.87l26.43-42.19-93.59-.49.24-16.24,44.62-.49v-32h-45.59l.49-18.19,45.1-.48q.48-10.92.48-22.55Z"/><path class="cls-2" d="M643.22,401.33a48,48,0,0,1,9.08-16.51,39.61,39.61,0,0,1,15.62-10.76,54.14,54.14,0,0,1,16.13-2.68,55.17,55.17,0,0,1,16.13,2.68,39.57,39.57,0,0,1,15.61,10.76,49.58,49.58,0,0,1,9.09,16.51,72.58,72.58,0,0,1,3.07,20,67.21,67.21,0,0,1-3.45,21.37,45.64,45.64,0,0,1-8.58,15.23l11.14,9.86-9.09,8.7-11.27-11a45.8,45.8,0,0,1-22.65,5.63,51.84,51.84,0,0,1-16.13-2.82,40.12,40.12,0,0,1-15.62-10.62,49.73,49.73,0,0,1-9.08-16.51,68.63,68.63,0,0,1,0-39.81Zm53.24,39.17,10.12,9.08a37.25,37.25,0,0,0,6.14-11.64,57.42,57.42,0,0,0,2.43-16.64,58.93,58.93,0,0,0-2.3-15.49,39.79,39.79,0,0,0-6.66-12.8,30.09,30.09,0,0,0-11.13-8.19,30.94,30.94,0,0,0-22.15,0A27.64,27.64,0,0,0,662,393a35.35,35.35,0,0,0-6.65,12.67,50.93,50.93,0,0,0-2.18,15.62,56.63,56.63,0,0,0,2.18,15.61A40,40,0,0,0,662,449.58a27.78,27.78,0,0,0,22,10.12,30.49,30.49,0,0,0,13.69-2.95l-9.08-9Z"/><path class="cls-2" d="M758.67,373.55v57.73a40,40,0,0,0,1.67,12.29,23.74,23.74,0,0,0,5.24,9.21,20.58,20.58,0,0,0,9,5.64,34,34,0,0,0,9.35,1.28,35.83,35.83,0,0,0,9-1.16,21.84,21.84,0,0,0,8.83-5.37,27.67,27.67,0,0,0,5.37-9.22,44.8,44.8,0,0,0,1.8-12.67V373.55h12.93v58A68,68,0,0,1,820,446a36.09,36.09,0,0,1-7.42,14.08,32.87,32.87,0,0,1-12.42,8.19,48.2,48.2,0,0,1-16.25,2.82,50,50,0,0,1-16.64-2.82,32.87,32.87,0,0,1-12.42-8.19A35.74,35.74,0,0,1,747.54,446a54.51,54.51,0,0,1-1.67-14.46v-58Z"/><path class="cls-2" d="M851.73,442.29a28.43,28.43,0,0,0,9.47,12.8,25.9,25.9,0,0,0,15.61,4.48,32.45,32.45,0,0,0,7-.77,22.74,22.74,0,0,0,7.17-3.33,17.58,17.58,0,0,0,4.23-4.86,12.43,12.43,0,0,0,1.53-5.51,13.6,13.6,0,0,0-1.66-5.37,19.79,19.79,0,0,0-4-4.48,50.08,50.08,0,0,0-7.81-4.87A108.82,108.82,0,0,0,873.1,426a145.66,145.66,0,0,1-14.72-5.89,52.08,52.08,0,0,1-10.49-6.65,23.55,23.55,0,0,1-6-8.07,20.51,20.51,0,0,1-1.28-7.16,23.72,23.72,0,0,1,1.79-9.09,25.49,25.49,0,0,1,7.17-9.6,39.13,39.13,0,0,1,11.52-6,51.62,51.62,0,0,1,14.08-2.17,40.22,40.22,0,0,1,21,5.5,33,33,0,0,1,14,17.66l-14,1.92a23.48,23.48,0,0,0-7.81-9.72,25.69,25.69,0,0,0-13.82-4,25.11,25.11,0,0,0-13.57,3.84,16.35,16.35,0,0,0-4.61,4.73,11.5,11.5,0,0,0-1.53,5.76,10.7,10.7,0,0,0,1,4.61,14.31,14.31,0,0,0,4.48,4.87,41.26,41.26,0,0,0,7.3,4.09q4.73,2.06,9.73,3.71a143,143,0,0,1,15.23,6.53,59.29,59.29,0,0,1,10.88,7.3,25,25,0,0,1,6.14,8.45,20.53,20.53,0,0,1,1.54,7,27.6,27.6,0,0,1-2.82,11.64,25.8,25.8,0,0,1-7.81,8.84,38,38,0,0,1-12.28,5.5,62.41,62.41,0,0,1-11.78,1.41,60.69,60.69,0,0,1-14.08-1.92,40.32,40.32,0,0,1-11.52-5.63,38.37,38.37,0,0,1-8.7-9.48,50.3,50.3,0,0,1-4.61-9.72Z"/><path class="cls-2" d="M941.58,373.55v40.32h52.35V373.55h12.8v95.23h-12.8V425.39H941.58v43.39H928.65V373.55Z"/><path class="cls-2" d="M1097.49,373.55v11.52h-56.32v28.8h51.07v11.52h-51.07v32.13h57.08v11.26h-70V373.55Z"/><path class="cls-2" d="M1129.36,373.55l52.09,74.88h.26V373.55h12.8v95.23h-13.44L1129,394h-.25v74.75h-12.93V373.55Z"/><path class="cls-2" d="M1321.74,373.55v11.52h-30.08v83.71h-12.93V385.07h-30.08V373.55Z"/><path class="cls-2" d="M1402.51,373.55v11.52h-56.32v28.8h51.07v11.52h-51.07v32.13h57.08v11.26h-70V373.55Z"/><path class="cls-2" d="M1419.15,400.94a46,46,0,0,1,8.7-16.38,37.1,37.1,0,0,1,15.23-10.5,54.2,54.2,0,0,1,16.13-2.68,61.88,61.88,0,0,1,11.9,1.4,45.73,45.73,0,0,1,12.55,5.51A36.61,36.61,0,0,1,1497.74,397l-13.06,2a27.47,27.47,0,0,0-10.75-12.54,30.73,30.73,0,0,0-14.72-3.71,31.1,31.1,0,0,0-13.06,2.81,26.29,26.29,0,0,0-9.72,8.32,38.11,38.11,0,0,0-5.76,13.57,61.29,61.29,0,0,0-1.28,13.7,65.78,65.78,0,0,0,1.28,13.05,39.86,39.86,0,0,0,5.88,13.7,28.34,28.34,0,0,0,9.6,8.7,31,31,0,0,0,28.42-.76,27.79,27.79,0,0,0,11-13.57l12.8,2a53.61,53.61,0,0,1-5.89,11.39,39.52,39.52,0,0,1-9,8.7,40.29,40.29,0,0,1-12.54,5.25,62.41,62.41,0,0,1-11.78,1.41,49.66,49.66,0,0,1-15.49-2.69,40.14,40.14,0,0,1-15.23-10.11,49.58,49.58,0,0,1-9.09-16.51,66.74,66.74,0,0,1-2.94-20.61A70.66,70.66,0,0,1,1419.15,400.94Z"/><path class="cls-2" d="M1527.3,373.55v40.32h52.36V373.55h12.8v95.23h-12.8V425.39H1527.3v43.39h-12.92V373.55Z"/></g></g></svg>